<svg width="220" height="136" viewBox="0 0 220 136" fill="none" xmlns="http://www.w3.org/2000/svg">
  <path d="M42.0875 121.333L41.9453 135H46.0225L48.3163 125.901V121.333H42.0875Z" stroke="#989898" stroke-miterlimit="10"/>
  <path d="M130.224 121.333H48.3164V125.638H130.224V121.333Z" stroke="#989898" stroke-miterlimit="10"/>
  <path d="M57.0139 121.331H41.9453V80.3317C41.9453 76.172 45.3186 72.7998 49.4796 72.7998C53.6406 72.7998 57.0139 76.172 57.0139 80.3317V121.331V121.331Z" stroke="#989898" stroke-miterlimit="10"/>
  <path d="M130.221 121.332H57.0117V106.556C57.0117 104.521 58.6601 102.874 60.695 102.874H130.221V121.332Z" stroke="#989898" stroke-miterlimit="10"/>
  <path d="M126.352 102.874H60.881C58.744 102.874 57.0117 101.142 57.0117 99.0061V94.2922C57.0117 88.9112 61.377 84.5474 66.7596 84.5474H120.477C125.86 84.5474 130.225 88.9112 130.225 94.2922V99.0061C130.221 101.142 128.489 102.874 126.352 102.874Z" stroke="#989898" stroke-miterlimit="10"/>
  <path d="M61.7849 85.9168V53.1788C61.7849 50.2258 64.1809 47.8306 67.1348 47.8306H124.875C127.829 47.8306 130.225 50.2258 130.225 53.1788V94.2945" stroke="#989898" stroke-miterlimit="10"/>
  <path d="M198.661 85.9168V53.1788C198.661 50.2258 196.265 47.8306 193.311 47.8306H135.572C132.618 47.8306 130.222 50.2258 130.222 53.1788V94.2945" stroke="#989898" stroke-miterlimit="10"/>
  <path d="M61.7852 69.5444L47.9602 72.9531" stroke="#989898" stroke-miterlimit="10"/>
  <path d="M203.431 121.331H218.5V80.3317C218.5 76.172 215.127 72.7998 210.966 72.7998C206.805 72.7998 203.431 76.172 203.431 80.3317V121.331V121.331Z" stroke="#989898" stroke-miterlimit="10"/>
  <path d="M198.663 69.5444L212.488 72.9531" stroke="#989898" stroke-miterlimit="10"/>
  <path d="M218.357 121.333L218.499 135H214.422L212.132 125.901V121.333H218.357Z" stroke="#989898" stroke-miterlimit="10"/>
  <path d="M130.224 125.633L212.132 125.633L212.132 121.328L130.224 121.328L130.224 125.633Z" stroke="#989898" stroke-miterlimit="10"/>
  <path d="M130.222 121.332H203.431V106.556C203.431 104.521 201.783 102.874 199.748 102.874H130.222V121.332Z" stroke="#989898" stroke-miterlimit="10"/>
  <path d="M134.091 102.874H199.566C201.703 102.874 203.435 101.142 203.435 99.0061V94.2922C203.435 88.9112 199.07 84.5474 193.687 84.5474H139.97C134.587 84.5474 130.222 88.9112 130.222 94.2922V99.0061C130.222 101.142 131.954 102.874 134.091 102.874Z" stroke="#989898" stroke-miterlimit="10"/>
  <path d="M7.07643 16H92.7453C95.8089 16 98.3217 18.5121 98.3217 21.5833V72.2458C98.3217 75.3171 95.8089 77.8377 92.7453 77.8377H7.07643C4.00423 77.8377 1.5 75.3171 1.5 72.2458V21.5833C1.5 18.5121 4.00423 16 7.07643 16Z" fill="#F5F3F1" stroke="#989898" stroke-miterlimit="10"/>
  <path d="M98.3217 29.7378H1.5V42.1088H98.3217V29.7378Z" stroke="#989898" stroke-miterlimit="10"/>
  <mask id="mask0_993_83735" style="mask-type:alpha" maskUnits="userSpaceOnUse" x="1" y="29" width="97" height="13">
    <rect x="1.5" y="29.729" width="96.1292" height="12.2031" fill="#C4C4C4"/>
  </mask>
  <g mask="url(#mask0_993_83735)">
    <path d="M87.6116 -11.7407L-10.107 37.4898" stroke="#989898"/>
    <path d="M89.7168 -7.56738L-8.00203 41.6627" stroke="#989898"/>
    <path d="M91.8225 -3.39404L-5.89633 45.836" stroke="#989898"/>
    <path d="M93.927 0.778809L-3.79181 50.0089" stroke="#989898"/>
    <path d="M96.0286 4.95654L-1.69026 54.1866" stroke="#989898"/>
    <path d="M98.1382 9.12939L0.419345 58.3595" stroke="#989898"/>
    <path d="M100.239 13.3071L2.51992 62.5372" stroke="#989898"/>
    <path d="M102.344 17.48L4.62541 66.7101" stroke="#989898"/>
    <path d="M104.445 21.6528L6.726 70.8829" stroke="#989898"/>
    <path d="M106.555 25.8257L8.83658 75.0558" stroke="#989898"/>
    <path d="M108.656 30.0034L10.9372 79.2335" stroke="#989898"/>
    <path d="M110.757 34.1763L13.0377 83.4063" stroke="#989898"/>
  </g>
</svg>
