<svg width="269" height="103" viewBox="0 0 269 103" fill="none" xmlns="http://www.w3.org/2000/svg">
<path d="M140.54 14.5801C138.92 14.5801 137.828 15.5521 137.828 16.9921C137.828 18.0961 138.548 18.9721 139.688 19.2961L137.384 22.5001H138.452L140.672 19.4161H142.244V22.5001H143.18V14.5801H140.54ZM142.244 18.5641H140.54C139.484 18.5641 138.8 17.9521 138.8 16.9921C138.8 16.0441 139.484 15.4201 140.54 15.4201H142.244V18.5641Z" fill="#989898"/>
<path d="M153.445 20.7361C153.445 20.0641 153.025 19.5721 152.341 19.3321C152.725 19.0801 152.953 18.6721 152.953 18.2041C152.953 17.2561 152.221 16.6561 151.069 16.6561H148.657V22.5001H151.369C152.629 22.5001 153.445 21.7801 153.445 20.7361ZM149.581 17.4841H151.081C151.717 17.4841 152.041 17.7361 152.041 18.2521C152.041 18.7441 151.717 19.0441 151.081 19.0441H149.581V17.4841ZM152.521 20.7361C152.521 21.3001 152.077 21.6841 151.309 21.6841H149.581V19.8601H151.309C152.077 19.8601 152.521 20.1961 152.521 20.7361Z" fill="#989898"/>
<path d="M160.344 19.8601C160.392 19.6201 160.416 19.3921 160.416 19.1641C160.416 17.6161 159.264 16.5241 157.752 16.5241C156.084 16.5241 154.764 17.8921 154.764 19.5841C154.764 21.3001 156.12 22.6321 157.86 22.6321C158.784 22.6321 159.588 22.2481 160.2 21.6121L159.66 20.9881C159.132 21.5161 158.532 21.7801 157.872 21.7801C156.72 21.7801 155.832 21.0121 155.724 19.8601H160.344ZM155.76 19.0441C155.964 18.0361 156.756 17.3641 157.728 17.3641C158.7 17.3641 159.456 18.0001 159.468 19.0441H155.76Z" fill="#989898"/>
<path d="M165.859 20.8201C165.859 20.1601 165.499 19.6321 164.863 19.3801C165.331 19.0921 165.559 18.6481 165.559 18.1201C165.559 17.1241 164.803 16.5241 163.639 16.5241C162.679 16.5241 161.959 16.9321 161.515 17.5441L162.139 18.0961C162.523 17.6281 162.943 17.3761 163.603 17.3761C164.275 17.3761 164.647 17.6881 164.647 18.1801C164.647 18.6961 164.299 18.9961 163.627 18.9961H163.003V19.8121H163.639C164.455 19.8121 164.911 20.1961 164.911 20.7601C164.911 21.3721 164.455 21.7801 163.639 21.7801C162.919 21.7801 162.427 21.4801 162.031 20.9521L161.407 21.5041C161.935 22.2241 162.691 22.6321 163.651 22.6321C164.983 22.6321 165.859 21.9241 165.859 20.8201Z" fill="#989898"/>
<path d="M171.653 16.6561L169.721 21.3121L167.789 16.6561H166.793L169.217 22.3201L168.905 23.0161C168.605 23.7241 168.197 23.9521 167.585 23.9521C167.417 23.9521 167.177 23.9281 166.877 23.8921V24.6721C167.177 24.7561 167.477 24.7921 167.777 24.7921C168.677 24.7921 169.313 24.3361 169.757 23.3161L172.637 16.6561H171.653Z" fill="#989898"/>
<path d="M141.836 38.8201C141.836 38.1601 141.476 37.6321 140.84 37.3801C141.308 37.0921 141.536 36.6481 141.536 36.1201C141.536 35.1241 140.78 34.5241 139.616 34.5241C138.656 34.5241 137.936 34.9321 137.492 35.5441L138.116 36.0961C138.5 35.6281 138.92 35.3761 139.58 35.3761C140.252 35.3761 140.624 35.6881 140.624 36.1801C140.624 36.6961 140.276 36.9961 139.604 36.9961H138.98V37.8121H139.616C140.432 37.8121 140.888 38.1961 140.888 38.7601C140.888 39.3721 140.432 39.7801 139.616 39.7801C138.896 39.7801 138.404 39.4801 138.008 38.9521L137.384 39.5041C137.912 40.2241 138.668 40.6321 139.628 40.6321C140.96 40.6321 141.836 39.9241 141.836 38.8201Z" fill="#989898"/>
<path d="M147.857 36.9001C147.857 35.3641 146.957 34.5241 145.577 34.5241C144.605 34.5241 143.729 34.9441 143.201 35.8081L143.813 36.3121C144.293 35.6881 144.809 35.3761 145.517 35.3761C146.393 35.3761 146.933 35.8921 146.933 36.8521V37.3561H145.085C143.825 37.3561 142.985 37.9921 142.985 38.9881C142.985 39.9961 143.825 40.6321 145.025 40.6321C145.877 40.6321 146.561 40.3201 146.993 39.7441V40.5001H147.857V36.9001ZM146.933 38.2561C146.933 39.1561 146.105 39.8641 145.145 39.8641C144.461 39.8641 143.933 39.5281 143.933 38.9401C143.933 38.4001 144.377 38.1121 145.193 38.1121H146.933V38.2561Z" fill="#989898"/>
<path d="M149.817 40.5001H150.741V36.5521L152.733 38.9281H153.093L155.085 36.5521V40.5001H156.009V34.5241H155.685L152.925 37.8121L150.153 34.5241H149.817V40.5001Z" fill="#989898"/>
<path d="M163.204 37.8601C163.252 37.6201 163.276 37.3921 163.276 37.1641C163.276 35.6161 162.124 34.5241 160.612 34.5241C158.944 34.5241 157.624 35.8921 157.624 37.5841C157.624 39.3001 158.98 40.6321 160.72 40.6321C161.644 40.6321 162.448 40.2481 163.06 39.6121L162.52 38.9881C161.992 39.5161 161.392 39.7801 160.732 39.7801C159.58 39.7801 158.692 39.0121 158.584 37.8601H163.204ZM158.62 37.0441C158.824 36.0361 159.616 35.3641 160.588 35.3641C161.56 35.3641 162.316 36.0001 162.328 37.0441H158.62Z" fill="#989898"/>
<path d="M168.271 34.6561V37.3801C167.923 37.5361 167.395 37.6321 166.975 37.6321C165.931 37.6321 165.403 37.1281 165.403 36.1321V34.6561H164.479V36.1801C164.479 37.6561 165.391 38.4601 166.795 38.4601C167.407 38.4601 167.899 38.3761 168.271 38.1961V40.5001H169.195V34.6561H168.271Z" fill="#989898"/>
<path d="M175.619 36.9001C175.619 35.3641 174.719 34.5241 173.339 34.5241C172.367 34.5241 171.491 34.9441 170.963 35.8081L171.575 36.3121C172.055 35.6881 172.571 35.3761 173.279 35.3761C174.155 35.3761 174.695 35.8921 174.695 36.8521V37.3561H172.847C171.587 37.3561 170.747 37.9921 170.747 38.9881C170.747 39.9961 171.587 40.6321 172.787 40.6321C173.639 40.6321 174.323 40.3201 174.755 39.7441V40.5001H175.619V36.9001ZM174.695 38.2561C174.695 39.1561 173.867 39.8641 172.907 39.8641C172.223 39.8641 171.695 39.5281 171.695 38.9401C171.695 38.4001 172.139 38.1121 172.955 38.1121H174.695V38.2561Z" fill="#989898"/>
<path d="M178.638 40.5001H179.55V35.4841H181.518V34.6561H176.67V35.4841H178.638V40.5001Z" fill="#989898"/>
<path d="M187.942 37.8601C187.99 37.6201 188.014 37.3921 188.014 37.1641C188.014 35.6161 186.862 34.5241 185.35 34.5241C183.682 34.5241 182.362 35.8921 182.362 37.5841C182.362 39.3001 183.718 40.6321 185.458 40.6321C186.382 40.6321 187.186 40.2481 187.798 39.6121L187.258 38.9881C186.73 39.5161 186.13 39.7801 185.47 39.7801C184.318 39.7801 183.43 39.0121 183.322 37.8601H187.942ZM183.358 37.0441C183.562 36.0361 184.354 35.3641 185.326 35.3641C186.298 35.3641 187.054 36.0001 187.066 37.0441H183.358Z" fill="#989898"/>
<path d="M190.093 34.6561L190.057 36.1801C190.009 38.5801 189.733 39.7441 188.977 39.7441C188.917 39.7441 188.833 39.7321 188.737 39.7201V40.5001C188.833 40.5361 188.941 40.5481 189.049 40.5481C190.429 40.5001 190.825 39.2521 190.933 36.2041L190.957 35.4841H193.129V40.5001H194.053V34.6561H190.093Z" fill="#989898"/>
<path d="M196.094 40.5001H198.41C199.742 40.5001 200.594 39.7321 200.594 38.5801C200.594 37.4281 199.742 36.6721 198.41 36.6721H197.018V34.6561H196.094V40.5001ZM197.018 39.6841V37.4881H198.35C199.166 37.4881 199.646 37.9321 199.646 38.5921C199.646 39.2521 199.178 39.6841 198.362 39.6841H197.018Z" fill="#989898"/>
<path d="M202.212 40.5001H203.136V37.8001H206.004V40.5001H206.928V34.6561H206.004V36.9841H203.136V34.6561H202.212V40.5001Z" fill="#989898"/>
<path d="M208.95 40.5001H211.266C212.598 40.5001 213.45 39.7441 213.45 38.5801C213.45 37.4281 212.574 36.6721 211.266 36.6721H209.874V34.6561H208.95V40.5001ZM214.302 40.5001H215.226V34.6561H214.302V40.5001ZM209.874 39.6841V37.4881H211.206C212.034 37.4881 212.502 37.8841 212.502 38.5921C212.502 39.3001 212.046 39.6841 211.218 39.6841H209.874Z" fill="#989898"/>
<path d="M221.746 34.5241L218.182 38.7961V34.6561H217.258V40.6321H217.594L221.158 36.3721V40.5001H222.082V34.5241H221.746ZM217.99 31.7281C217.99 32.8681 218.71 33.6241 219.802 33.6241C220.906 33.6241 221.626 32.8681 221.626 31.7281V31.3561H220.846V31.7041C220.846 32.4841 220.474 32.9281 219.802 32.9281C219.142 32.9281 218.77 32.4841 218.77 31.7041V31.3561H217.99V31.7281Z" fill="#989898"/>
<path d="M143.624 57.6601V50.5801H138.824L138.812 51.5761C138.812 53.3281 138.716 54.6841 138.512 55.6441C138.308 56.5921 137.996 57.2641 137.576 57.6601H136.964V60.1921H137.9V58.5001H143.648V60.1921H144.584V57.6601H143.624ZM138.62 57.6601C139.304 56.7481 139.664 54.7681 139.676 51.4201H142.688V57.6601H138.62Z" fill="#989898"/>
<path d="M150.45 52.5241L146.886 56.7961V52.6561H145.962V58.6321H146.298L149.862 54.3721V58.5001H150.786V52.5241H150.45Z" fill="#989898"/>
<path d="M157.605 56.7361C157.605 56.0641 157.185 55.5721 156.501 55.3321C156.885 55.0801 157.113 54.6721 157.113 54.2041C157.113 53.2561 156.381 52.6561 155.229 52.6561H152.817V58.5001H155.529C156.789 58.5001 157.605 57.7801 157.605 56.7361ZM153.741 53.4841H155.241C155.877 53.4841 156.201 53.7361 156.201 54.2521C156.201 54.7441 155.877 55.0441 155.241 55.0441H153.741V53.4841ZM156.681 56.7361C156.681 57.3001 156.237 57.6841 155.469 57.6841H153.741V55.8601H155.469C156.237 55.8601 156.681 56.1961 156.681 56.7361Z" fill="#989898"/>
<path d="M163.724 54.9001C163.724 53.3641 162.824 52.5241 161.444 52.5241C160.472 52.5241 159.596 52.9441 159.068 53.8081L159.68 54.3121C160.16 53.6881 160.676 53.3761 161.384 53.3761C162.26 53.3761 162.8 53.8921 162.8 54.8521V55.3561H160.952C159.692 55.3561 158.852 55.9921 158.852 56.9881C158.852 57.9961 159.692 58.6321 160.892 58.6321C161.744 58.6321 162.428 58.3201 162.86 57.7441V58.5001H163.724V54.9001ZM162.8 56.2561C162.8 57.1561 161.972 57.8641 161.012 57.8641C160.328 57.8641 159.8 57.5281 159.8 56.9401C159.8 56.4001 160.244 56.1121 161.06 56.1121H162.8V56.2561Z" fill="#989898"/>
<path d="M165.684 58.5001H166.608V55.8001H169.476V58.5001H170.4V52.6561H169.476V54.9841H166.608V52.6561H165.684V58.5001Z" fill="#989898"/>
<path d="M42.8681 102.5C53.8882 102.5 62.8798 93.8094 62.8798 83.1522C62.8798 72.4993 53.8882 63.8086 42.8681 63.8086C31.8435 63.8086 22.8564 72.4993 22.8564 83.1522C22.8564 93.8094 31.8435 102.5 42.8681 102.5Z" stroke="#989898" stroke-miterlimit="10"/>
<path d="M43.4659 94.5383C50.2308 94.5383 55.7462 89.1935 55.7462 82.6437C55.7462 76.0939 50.2308 70.7534 43.4659 70.7534C36.701 70.7534 31.1855 76.0939 31.1855 82.6437C31.1855 89.1935 36.701 94.5383 43.4659 94.5383Z" stroke="#989898" stroke-miterlimit="10"/>
<path d="M43.4611 91.7433C48.6313 91.7433 52.852 87.8171 52.852 82.9967C52.852 78.1806 48.6313 74.2544 43.4611 74.2544C38.291 74.2544 34.0703 78.1806 34.0703 82.9967C34.0703 87.8157 38.291 91.7433 43.4611 91.7433Z" stroke="#989898" stroke-miterlimit="10"/>
<path d="M20.0101 87.5454L5.04645 84.2908C5.04645 84.2908 1.31751 82.1162 0.868956 77.0504C0.420406 71.9818 5.94355 48.5263 18.6345 42.1561C31.321 35.7859 46.7003 33.1799 50.1332 30.8606C53.5691 28.5456 92.0846 6.10361 92.0846 6.10361C92.0846 6.10361 97.7587 2.33649 110.598 1.75738C123.437 1.17827 243.914 1.75738 243.914 1.75738C243.914 1.75738 249.141 1.3216 251.079 4.94249C253.021 8.56193 263.918 36.5084 263.918 36.5084C263.918 36.5084 264.815 38.2442 264.515 41.8637C264.219 45.4831 263.77 56.0519 263.77 56.0519C263.77 56.0519 263.321 57.0653 265.111 61.2639C266.905 65.4624 268.843 70.0968 268.843 70.0968V78.4939C268.843 78.4939 268.996 81.6833 264.515 82.1133C262.001 82.3594 251.375 83.1514 242.551 83.8C242.563 83.5046 242.567 83.2093 242.567 82.9096C242.567 69.8376 231.64 59.2399 218.161 59.2399C204.678 59.2399 193.751 69.8376 193.751 82.9096C193.751 83.7174 193.789 84.5137 193.874 85.3027H66.7266C66.8118 84.5152 66.8536 83.7189 66.8536 82.9096C66.8536 70.2357 56.2619 59.9623 43.1926 59.9623C30.1234 59.9623 19.5286 70.2357 19.5286 82.9096C19.5286 84.4992 19.6976 86.0469 20.0101 87.5454Z" stroke="#989898" stroke-miterlimit="10"/>
<path d="M217.973 102.5C228.992 102.5 237.982 93.8094 237.982 83.1522C237.982 72.4993 228.992 63.8086 217.973 63.8086C206.95 63.8086 197.959 72.4993 197.959 83.1522C197.959 93.8094 206.95 102.5 217.973 102.5Z" stroke="#989898" stroke-miterlimit="10"/>
<path d="M218.285 94.5383C225.048 94.5383 230.563 89.1935 230.563 82.6437C230.563 76.0939 225.048 70.7534 218.285 70.7534C211.521 70.7534 206.002 76.0939 206.002 82.6437C206.002 89.1935 211.521 94.5383 218.285 94.5383Z" stroke="#989898" stroke-miterlimit="10"/>
<path d="M218.28 91.7433C223.451 91.7433 227.668 87.8171 227.668 82.9967C227.668 78.1806 223.451 74.2544 218.28 74.2544C213.104 74.2544 208.887 78.1806 208.887 82.9967C208.887 87.8157 213.104 91.7433 218.28 91.7433Z" stroke="#989898" stroke-miterlimit="10"/>
<path d="M238.502 69.3568L268.119 68.6572" stroke="#989898" stroke-miterlimit="10"/>
<path d="M260.97 28.0845H259.074C259.074 28.0845 254.459 39.9938 255.202 42.5232C255.945 45.0483 263.934 57.7456 263.934 57.7456" stroke="#989898" stroke-miterlimit="10"/>
<path d="M56.8421 32.0001C62.8409 27.611 83.134 13.0649 93.3046 9.6295C105.325 5.56935 116.746 5.7172 116.746 5.7172C116.746 5.7172 119.527 5.35627 119.302 7.5987C119.076 9.84693 117.875 22.8927 117.875 22.8927L112.839 30.2853C112.839 30.2853 111.561 31.0826 108.332 31.5175C105.53 31.8958 67.9337 34.9485 58.0385 35.7457C54.1722 36.0646 54.3077 33.857 56.8421 32.0001Z" stroke="#989898" stroke-miterlimit="10"/>
<path d="M15.623 48.1072C21.0983 44.4723 27.0006 42.7705 27.0006 42.7705L29.7396 43.7326C29.7396 43.7326 18.5785 59.6684 12.9604 62.2656C7.34231 64.8583 5.90137 65.1563 5.90137 65.1563C7.28606 58.0467 9.02124 52.4862 15.623 48.1072Z" stroke="#989898" stroke-miterlimit="10"/>
<path d="M0.84375 74.2544H21.7925" stroke="#989898" stroke-miterlimit="10"/>
<path d="M123.646 1.5V85.4467" stroke="#989898" stroke-miterlimit="10"/>
<path d="M78.1387 34.3782V17.5889" stroke="#989898" stroke-miterlimit="10"/>
<rect x="236.258" y="49.0083" width="12.0027" height="8.23413" rx="2.5" stroke="#989898"/>
</svg>