<?xml version="1.0"?>
<svg xmlns="http://www.w3.org/2000/svg" width="83" height="42" viewBox="0 0 83 42" fill="none"><style>#hover{fill:transparent;transition:fill .3s ease-out}#hover:target{fill:#f5f3f1}</style><path d="M1 41H3L4 36.5H79L80 41H82V15.5C82 13.5 79.7 12.7 78.5 12.5L73 11V4C73 1.6 70.9 1 69.9 1H44.5C42.1 1 41.5 2.3 41.5 3L41 2C40.6 1.2 39.5 1 39 1H12.5C10.9 1 10.2 2.3 10 3V11C7.8 11.5 3.3 12.6 2.5 13C1.7 13.4 1.2 15.2 1 16V41Z" fill="none" id="hover"/><path d="M3.8999 34.7V36.8L2.7999 41H0.899902L0.999902 15.9C0.999902 14 2.4999 12.4 4.4999 12.4M3.8999 36.7H41.4999H79.0999M41.4999 34.7H0.999902M41.4999 34.7H81.9999M41.4999 34.7V24.5M4.4999 12.4C6.3999 12.4 7.9999 13.9 7.9999 15.9V34.7M4.4999 12.4L10.0999 11M7.9999 22.3C7.9999 19.8 9.8999 17.8 12.3999 17.8H36.9999C39.4999 17.8 41.4999 19.8 41.4999 22.3M41.4999 22.3V24.5M41.4999 22.3C41.4999 19.8 43.4999 17.8 45.9999 17.8H70.5999C73.0999 17.8 74.9999 19.7 74.9999 22.2M41.4999 24.5C41.4999 25.5 40.6999 26.3 39.6999 26.3H7.9999M41.4999 24.5C41.4999 25.5 42.2999 26.3 43.2999 26.3H73.2999C74.2999 26.3 74.9999 25.4 74.9999 24.4M10.0999 18.4403V3.5C10.0999 2.1 11.1999 1 12.5999 1H38.9999C40.3999 1 41.4999 2.1 41.4999 3.5M41.4999 3.5V22.4M41.4999 3.5C41.4999 2.1 42.5999 1 43.9999 1H70.3999C71.7999 1 72.8999 2.1 72.8999 3.5V18.5M78.4999 12.4C80.4999 12.4 81.9999 14 81.9999 15.9L82.0999 41H80.1999L79.0999 36.8V34.7M78.4999 12.4C76.5999 12.4 74.9999 13.9 74.9999 15.9V34.7M78.4999 12.4L76.0499 11.8L72.8999 11" stroke="#989898" stroke-miterlimit="10"/></svg>
