<?xml version="1.0"?>
<svg xmlns="http://www.w3.org/2000/svg" width="85" height="40" viewBox="0 0 85 40" fill="none"><style>#hover{fill:transparent;transition:fill .3s ease-out}#hover:target{fill:#f5f3f1}</style><path d="M6.4 33.7V35.3L5.4 39.4H3.5V33.7H0.5L0.6 25.8L1.7 24.6L0.5 23.3V20.1C0.5 20.1 1.8 16.6 4.6 16.6C7.4 16.6 38.5 16.5 38.5 16.5V2.9C38.5 2.9 39.3 0.5 41.5 0.5C43.7 0.5 73.5 0.5 73.5 0.5C73.5 0.5 76.5 1 76.5 3.2C76.5 5.4 76.5 13.9 76.5 13.9C76.5 13.9 77.7 11.6 80.2 11.6C82.7 11.6 84.5 13.4 84.5 14.6C84.5 15.8 84.5 33.8 84.5 33.8H81.3L81.4 39.6H79.5L78.5 35.4V33.8L6.4 33.7Z" fill="none" id="hover"/><path d="M38.5 16.6V3.5C38.5 1.8 39.8 0.5 41.5 0.5H73.5C75.2 0.5 76.5 1.8 76.5 3.5V16V33.7M3.6 33.7L3.5 39.5H5.4L6.4 35.3V33.7M76.5 22.9C76.5 23.8 75.6 24.6 74.5 24.6H2.5C1.4 24.6 0.5 23.8 0.5 22.9V20.8C0.5 18.4 2.8 16.5 5.6 16.5H71.4C74.2 16.5 76.5 18.4 76.5 20.8M76.5 33.7H84.5V15C84.5 13.1 82.7 11.5 80.5 11.5C78.5952 11.5 76.5 13 76.5 15M76.5 33.7H0.5V26.5C0.5 25.5 1.74785 24.6 2.74785 24.6M81.3 33.7L81.4 39.5H79.5L78.5 35.3V33.7M38.5 24.6V33.7" stroke="#989898" stroke-miterlimit="10"/></svg>
