<?xml version="1.0"?>
<svg xmlns="http://www.w3.org/2000/svg" width="53" height="50" viewBox="0 0 53 50" fill="none"><style>#hover{fill:transparent;transition:fill .3s ease-out}#hover:target{fill:#f5f3f1}</style><path d="M15.9999 38.7L14.9999 49H13.2999L13.4999 38.7C13.4999 38.7 8.49994 37.0999 5.29994 30.1999C2.09994 23.2999 0.499937 19.5999 1.19994 18.4999C1.79994 17.3999 4.99994 16.4 5.69994 16.2C6.39994 16 8.29994 15.6999 8.29994 15.6999L7.89994 5.79995C7.89994 5.79995 7.59994 1.09995 12.2999 0.999949C16.9999 0.899949 20.4999 1.89995 25.9999 1.89995C31.4999 1.89995 38.4999 0.899949 40.8999 0.999949C43.2999 1.09995 44.9999 2.59995 44.9999 6.09995C44.9999 9.59995 44.6999 15.5999 44.6999 15.5999C44.6999 15.5999 48.3999 16.0999 49.9999 17.0999C51.5999 18.0999 52.4999 18.1999 51.5999 20.7999C50.6999 23.3999 47.0999 32.2 44.4999 35.2C41.2999 38.7999 39.5999 38.7999 39.5999 38.7999L39.6999 49H37.9999L36.9999 38.7H15.9999Z" fill="none" id="hover"/><path d="M39.4 31.5C40.5 30.1 41.4 28.1 41.8 26.4M39.4 31.5L14 31.6C13.7 31.6 11.1 29 11.1 27V26.2C11.1 24.8 12.3 23.6 13.7 23.6H39.3M39.4 31.5V38.7M39.4 31.5C42.3 31.5 46 24 47.8 20.1C48.4 18.8 49.8 18.2 51.1 18.7L52 19M41.8 26.4H11.5M41.8 26.4V26.2C41.9 24.7 40.7 23.6 39.3 23.6M39.3 23.6L42.1 17.4C42.8 16 44.4 15.5 45.6 15.7L47.7 16.3C49.1 16.7 52 17.7 52 19M13.7 38.7L13.3 49H15L16 38.7M13.7 38.7H39.4M13.7 38.7C13.7 38.8 8.3 38.9 2.5 23.8C1.1 20.3 1 19 1 19M13.7 38.7V31.6C10.8 31.6 7 24 5.2 20.1C4.6 18.8 3.2 18.2 1.9 18.7L1 19M39.4 38.7L39.7 49H38L37 38.7M39.4 38.7C39.4 38.8 44.7 38.9 50.5 23.8C51.9 20.3 52 19 52 19M44.6 15.5L44.9 6.69996C44.9 4.09996 44.1 1.29996 41.7 0.99996C41.5 0.99996 41.3 0.99996 41.1 0.99996C37.6 0.69996 32.4 1.79996 26.3 1.79996H26.5C20.4 1.79996 15 0.7 11.5 1C11.3 1 11.3 0.99996 11.1 0.99996C8.7 1.29996 7.9 4.19996 7.9 6.79996L8.2 15.6M1 19C1 17.7 3.9 16.7 5.3 16.3L7.4 15.7C8.6 15.5 10.2 16 10.9 17.4L13.2078 23.6498M20.1 8.89996C20.4 8.89996 20.7 8.59996 20.7 8.29996C20.7 7.99996 20.4 7.69996 20.1 7.69996C19.8 7.69996 19.5 7.99996 19.5 8.29996C19.5 8.59996 19.8 8.89996 20.1 8.89996ZM32.9 8.89996C33.2 8.89996 33.5 8.59996 33.5 8.29996C33.5 7.99996 33.2 7.69996 32.9 7.69996C32.6 7.69996 32.3 7.99996 32.3 8.29996C32.3 8.59996 32.6 8.89996 32.9 8.89996ZM20.1 17.9C20.4 17.9 20.7 17.6 20.7 17.3C20.7 17 20.4 16.7 20.1 16.7C19.8 16.7 19.5 17 19.5 17.3C19.5 17.6 19.8 17.9 20.1 17.9ZM32.9 17.9C33.2 17.9 33.5 17.6 33.5 17.3C33.5 17 33.2 16.7 32.9 16.7C32.6 16.7 32.3 17 32.3 17.3C32.3 17.6 32.6 17.9 32.9 17.9Z" stroke="#989898" stroke-miterlimit="10"/></svg>
