<?xml version="1.0"?>
<svg xmlns="http://www.w3.org/2000/svg" width="54" height="45" viewBox="0 0 54 45" xml:space="preserve"><style>#hover{fill:transparent;transition:fill .3s ease-out}#hover:target{fill:#f5f3f1}</style><path fill="none" d="m10.1 17 6.4-1.7c4.2-1.1 6.6-5.1 8.4-8.7.8-1.5 2-3 3.9-4.2C30.7 1.3 33.4.5 37 .5c6.9 0 10.2 2.2 11.8 4.7 1.7 2.5 1.7 5.3 1.7 6.8 0 2.6.5 5.1 1.2 7.5.1.5.3 1 .4 1.5.5 2 1 3.9 1.3 5.8.1.7.2 1.5.2 2.2 0 8.6-6.9 15.5-15.5 15.5H16C7.4 44.5.5 37.6.5 29c0-4.3 1.8-7.1 3.9-9s4.5-2.8 5.7-3z" id="hover"/><path fill="none" stroke="#989898" stroke-miterlimit="10" d="M9 17.5c.6 4 6.8 10.5 27 4.7M10.1 17l6.4-1.7c4.2-1.1 6.6-5.1 8.4-8.7.8-1.5 2-3 3.9-4.2C30.7 1.3 33.4.5 37 .5c6.9 0 10.2 2.2 11.8 4.7 1.7 2.5 1.7 5.3 1.7 6.8 0 2.6.5 5.1 1.2 7.5.1.5.3 1 .4 1.5.5 2 1 3.9 1.3 5.8.1.7.2 1.5.2 2.2 0 8.6-6.9 15.5-15.5 15.5H16C7.4 44.5.5 37.6.5 29c0-4.3 1.8-7.1 3.9-9s4.5-2.8 5.7-3z"/></svg>
