<?xml version="1.0"?>
<svg xmlns="http://www.w3.org/2000/svg" width="78" height="49" viewBox="0 0 78 49" fill="none"><style>#hover{fill:transparent;transition:fill .3s ease-out}#hover:target{fill:#f5f3f1}</style><path d="M28 8C26 5.5 22.5 1 15.5 1C11.1 1 7.16667 3.33333 6 4.5C4.33333 5.66667 1 10.7 1 15.5C1 20.3 3.16667 23.5 4 24.5L6 27V42.5H9.5V48.5H11L12.5 44H70.5L71.5 48.5H73.5V42.5H77V24C77 21.5 75.5 19.5 72.5 19.5C70.1 19.5 68.8333 21.1667 68.5 22V11.5C68.6667 10.3333 68.2 8 65 8H28Z" fill="none" id="hover"/><path d="M76.7841 42.365V42.865H77.2841V42.365H76.7841ZM73.5 48.378V48.878H74V48.378H73.5ZM71.6005 48.378L71.1141 48.4938L71.2056 48.878H71.6005V48.378ZM70.5638 44.0238H70.0638V44.0825L70.0774 44.1396L70.5638 44.0238ZM6.08001 42.365H5.58001V42.865H6.08001V42.365ZM12.3003 44.0238L12.7867 44.1396L12.8003 44.0825V44.0238H12.3003ZM11.2636 48.378V48.878H11.6585L11.75 48.4938L11.2636 48.378ZM9.29384 48.378H8.79384V48.878H9.29384V48.378ZM65.3802 8.44601C66.8665 8.44601 67.9904 9.56988 67.9904 11.0562H68.9904C68.9904 9.0176 67.4188 7.44601 65.3802 7.44601V8.44601ZM67.9904 11.0562V22.9784H68.9904V11.0562H67.9904ZM68.9904 22.9784C68.9904 21.2482 70.5604 19.8499 72.6373 19.8499V18.8499C70.1526 18.8499 67.9904 20.5618 67.9904 22.9784H68.9904ZM72.6373 19.8499C74.7043 19.8499 76.2841 21.3433 76.2841 22.9784H77.2841C77.2841 20.674 75.1318 18.8499 72.6373 18.8499V19.8499ZM76.2841 22.9784V42.365H77.2841V22.9784H76.2841ZM68.9904 42.365V22.9784H67.9904V42.365H68.9904ZM68.9904 28.9914C68.9904 26.1479 66.2956 24.0335 63.2031 24.0335V25.0335C65.9163 25.0335 67.9904 26.8586 67.9904 28.9914H68.9904ZM73 42.5V48.378H74V42.5H73ZM73.5 47.878H71.6005V48.878H73.5V47.878ZM72.0869 48.2622L71.0502 43.9079L70.0774 44.1396L71.1141 48.4938L72.0869 48.2622ZM71.0638 44.0238V42.5H70.0638V44.0238H71.0638ZM6.58001 42.365V26.5H5.58001V42.365H6.58001ZM14.6848 34.4676H68.0757V33.4676H14.6848V34.4676ZM11.8139 43.9079L10.7772 48.2622L11.75 48.4938L12.7867 44.1396L11.8139 43.9079ZM11.2636 47.878H9.29384V48.878H11.2636V47.878ZM14.3737 41.865H12.3003V42.865H14.3737V41.865ZM9.39751 41.865H6.08001V42.865H9.39751V41.865ZM13.8737 30V42.365H14.8737V30H13.8737ZM14.3737 42.865H68.4904V41.865H14.3737V42.865ZM12.3003 44.6274H70.5638V43.6274H12.3003V44.6274ZM10.6903 22.0409L21.9463 10.7848L21.2392 10.0777L9.98317 21.3338L10.6903 22.0409ZM22.6281 19.3359C22.6281 20.3585 21.7991 21.1875 20.7765 21.1875V22.1875C22.3514 22.1875 23.6281 20.9108 23.6281 19.3359H22.6281ZM20.7765 21.1875C19.754 21.1875 18.925 20.3585 18.925 19.3359H17.925C17.925 20.9108 19.2017 22.1875 20.7765 22.1875V21.1875ZM18.925 19.3359C18.925 18.3133 19.754 17.4844 20.7765 17.4844V16.4844C19.2017 16.4844 17.925 17.7611 17.925 19.3359H18.925ZM20.7765 17.4844C21.7991 17.4844 22.6281 18.3133 22.6281 19.3359H23.6281C23.6281 17.7611 22.3514 16.4844 20.7765 16.4844V17.4844ZM13.0031 12.7515C13.0031 13.7741 12.1741 14.6031 11.1515 14.6031V15.6031C12.7264 15.6031 14.0031 14.3264 14.0031 12.7515H13.0031ZM11.1515 14.6031C10.129 14.6031 9.3 13.7741 9.3 12.7515H8.3C8.3 14.3264 9.57668 15.6031 11.1515 15.6031V14.6031ZM9.3 12.7515C9.3 11.729 10.129 10.9 11.1515 10.9V9.9C9.57668 9.9 8.3 11.1767 8.3 12.7515H9.3ZM11.1515 10.9C12.1741 10.9 13.0031 11.729 13.0031 12.7515H14.0031C14.0031 11.1767 12.7264 9.9 11.1515 9.9V10.9ZM29.5 15.5C29.5 23.2319 23.232 29.5 15.5 29.5V30.5C23.7843 30.5 30.5 23.7842 30.5 15.5H29.5ZM15.5 29.5C7.76801 29.5 1.5 23.2319 1.5 15.5H0.5C0.5 23.7842 7.21573 30.5 15.5 30.5V29.5ZM1.5 15.5C1.5 7.768 7.76801 1.5 15.5 1.5V0.5C7.21573 0.5 0.5 7.21571 0.5 15.5H1.5ZM15.5 1.5C23.232 1.5 29.5 7.768 29.5 15.5H30.5C30.5 7.21571 23.7843 0.5 15.5 0.5V1.5ZM63.2031 24.0335H26.9999V25.0335H63.2031V24.0335ZM76.7841 41.865H68.4904V42.865H76.7841V41.865ZM27.9999 8.44601H65.3802V7.44601H27.9999V8.44601ZM11.8003 42.5V44.0238H12.8003V42.5H11.8003ZM9.79384 48.378V42.5H8.79384V48.378H9.79384ZM9.39751 42.865H12.3003V41.865H9.39751V42.865Z" fill="#989898"/></svg>
