<?xml version="1.0"?>
<svg xmlns="http://www.w3.org/2000/svg" width="47" height="62" viewBox="0 0 47 62" xml:space="preserve"><style>#hover{fill:transparent;transition:fill .3s ease-out}#hover:target{fill:#f5f3f1}</style><path fill="none" d="M3.21 1.18h39.86c1.22 0 2.22.99 2.22 2.21v55.36c0 1.22-1 2.21-2.22 2.21H3.21C2 60.96 1 59.97 1 58.75V3.39c0-1.22 1-2.21 2.21-2.21z" id="hover"/><path fill="none" stroke="#989898" d="M1.1 3.5c0-1.23 1-2.22 2.22-2.22h39.86c1.22 0 2.21.99 2.21 2.21v55.19c0 1.22-.99 2.21-2.21 2.21H3.32c-1.22 0-2.21-.99-2.21-2.21V3.49zm17.04 3.74h.5v.5h-.5v-.5zm9.37 0h.5v.5h-.5v-.5zm-9.37 9.37h.5v.5h-.5v-.5zm-9.37 0h.5v.5h-.5v-.5zm18.74 0h.5v.5h-.5v-.5zm9.37 0h.5v.5h-.5v-.5zm-18.74 9.37h.5v.5h-.5v-.5zm-9.37 0h.5v.5h-.5v-.5zm18.74 0h.5v.5h-.5v-.5zm9.37 0h.5v.5h-.5v-.5zm-18.74 9.36h.5v.5h-.5v-.5zm-9.37 0h.5v.5h-.5v-.5zm18.74 0h.5v.5h-.5v-.5zm9.37 0h.5v.5h-.5v-.5zm-18.74 9.37h.5v.5h-.5v-.5zm-9.37 0h.5v.5h-.5v-.5zm18.74 0h.5v.5h-.5v-.5zm9.37 0h.5v.5h-.5v-.5zm-18.74 9.37h.5v.5h-.5v-.5zm9.37 0h.5v.5h-.5v-.5z"/></svg>
