<?xml version="1.0"?>
<svg xmlns="http://www.w3.org/2000/svg" width="115" height="42" viewBox="0 0 115 42" fill="none"><style>#hover{fill:transparent;transition:fill .3s ease-out}#hover:target{fill:#f5f3f1}</style><path d="M1.0001 36V15.4C1.0001 15.4 0.900103 13.7 3.3001 12.2C5.7001 10.7 11.0001 7.50002 11.0001 7.50002V3.10002C11.0001 3.10002 11.4001 1.00002 13.8001 1.00002C16.2001 1.00002 38.3001 1.00002 38.3001 1.00002C38.3001 1.00002 41.0001 1.70002 41.0001 2.80002C41.0001 3.90002 41.3001 1.00002 43.4001 1.00002C45.5001 1.00002 69.7001 1.00002 69.7001 1.00002C69.7001 1.00002 71.9001 1.60002 71.9001 2.70002C71.9001 3.80002 72.1001 1.00002 74.4001 1.00002C76.7001 1.00002 98.3001 1.00002 98.3001 1.00002C98.3001 1.00002 101 0.700021 101 4.00002C101 7.30002 101 8.20002 101 8.20002L113 18C113 18 114 17.9 114 22C114 26.1 114 41 114 41H75.0001L71.8001 36H1.0001Z" fill="none" id="hover"/><path d="M72 3.4C72 2.1 70.9 1 69.6 1H43.4C42.1 1 41 2.1 41 3.4V6M72 3.4C72 2.1 73 1 74.3 1H98.7C100 1 101 2.1 101 3.4V17M72 3.4V23V36M41 21.6V6M101 17H76.3C73.9 17 72 19.2 72 21.8M101 17L106.5 24.5M72 36H1V34M72 36L75 41M11 17.4V3.3C11 2 12.1 1 13.3 1H38.6C39.9 1 41 2 41 3.3V6M107 39V20.4C107 18.5 108.6 17 110.5 17C112.4 17 114 18.5 114 20.4V39M114 39V41H75M114 39H75M1 34V15.4C1 13.5 2.6 12 4.5 12C6.4 12 8 13.5 8 15.4V34M1 34H72M11 7.5L2.5465 12.5821M101 8L113 18M75 39L75.0132 29.323L72 25.2M75 39V41M72 24.1C72 25.1 71.2 26 70.3 26H42.6C41.7 26 41 25.1 41 24.1M72.0001 21.7648C72.0001 19.1648 70.1 17 67.8 17H45.1C42.8 17 41 19.1 41 21.8M41 21.8V24.1M41 21.8C41 19.1 39 17 36.6 17H12.4C10 17 8 19.2 8 21.8M41 24.1C41 25.1 40.2 26 39.3 26H9.7C8.7 26 8 25.1 8 24.1M76.7 31H105.3C106.2 31 107 30.1 107 29.1C107 26.6 107.1 23.8 104.5 22.4C104 22.1 103.4 22 102.7 22H79.3C76.9 22 75 24.1 75 26.8V29.1C75 30.1 75.8 31 76.7 31Z" stroke="#989898" stroke-miterlimit="10"/></svg>
