<?xml version="1.0"?>
<svg xmlns="http://www.w3.org/2000/svg" width="67" height="52" viewBox="0 0 67 52" fill="none"><style>#hover{fill:transparent;transition:fill .3s ease-out}#hover:target{fill:#f5f3f1}</style><path d="M6 51V41.5V41H5C3.66667 40.8333 1 39.2 1 34V11C1 10.5 1.5 1 11.5 1H56V16H61.5C63 16 66 17.2 66 22V46C66.1667 47.6667 65.1 51 59.5 51H6Z" fill="none" id="hover"/><path d="M61 1.5C61.2761 1.5 61.5 1.27614 61.5 1C61.5 0.723858 61.2761 0.5 61 0.5V1.5ZM61 31.5C61.2761 31.5 61.5 31.2761 61.5 31C61.5 30.7239 61.2761 30.5 61 30.5V31.5ZM61 41V40.5V41ZM6.00002 41V40.5V41ZM61 51V50.5V51ZM1.00002 36H1.50002H1.00002ZM1 11H0.500001H1ZM55.5 31C55.5 31.2761 55.7239 31.5 56 31.5C56.2762 31.5 56.5 31.2761 56.5 31H55.5ZM56.5 1C56.5 0.723857 56.2761 0.5 56 0.5C55.7239 0.5 55.5 0.723858 55.5 1L56.5 1ZM66 46H66.5H66ZM66 21H65.5H66ZM61 6.50002C61.2761 6.50002 61.5 6.27616 61.5 6.00002C61.5 5.72388 61.2761 5.50002 61 5.50002V6.50002ZM56 5.5C55.7239 5.5 55.5 5.72386 55.5 6C55.5 6.27614 55.7239 6.5 56 6.5V5.5ZM61 11.5C61.2761 11.5 61.5 11.2762 61.5 11C61.5 10.7239 61.2761 10.5 61 10.5V11.5ZM56 10.5C55.7239 10.5 55.5 10.7239 55.5 11C55.5 11.2761 55.7239 11.5 56 11.5V10.5ZM61 16V16.5V16ZM56 15.5C55.7239 15.5 55.5 15.7239 55.5 16C55.5 16.2761 55.7239 16.5 56 16.5L56 15.5ZM61 21.5C61.2761 21.5 61.5 21.2762 61.5 21C61.5 20.7239 61.2761 20.5 61 20.5V21.5ZM56 20.5C55.7239 20.5 55.5 20.7239 55.5 21C55.5 21.2761 55.7239 21.5 56 21.5V20.5ZM61 26.5C61.2761 26.5 61.5 26.2762 61.5 26C61.5 25.7239 61.2761 25.5 61 25.5V26.5ZM56 25.5C55.7239 25.5 55.5 25.7239 55.5 26C55.5 26.2761 55.7239 26.5 56 26.5V25.5ZM0.999998 45.5C0.723856 45.5 0.499999 45.7239 0.5 46C0.500001 46.2762 0.723859 46.5 1 46.5L0.999998 45.5ZM6 46.5C6.27614 46.5 6.5 46.2761 6.5 46C6.5 45.7239 6.27614 45.5 6 45.5L6 46.5ZM0.999998 50.5C0.723856 50.5 0.499999 50.7239 0.5 51C0.500001 51.2761 0.723859 51.5 1 51.5L0.999998 50.5ZM61 0.5H11V1.5H61V0.5ZM61 30.5H6V31.5H61V30.5ZM61 40.5H6.00002V41.5H61V40.5ZM61 50.5H6.00002V51.5H61V50.5ZM1.50002 36L1.5 11H0.500001L0.500019 36H1.50002ZM56.5 31L56.5 1L55.5 1L55.5 31H56.5ZM6.50002 51V41H5.50002V51H6.50002ZM66.5 46V21H65.5V46H66.5ZM61 5.50002L56 5.5V6.5L61 6.50002V5.50002ZM61 10.5L56 10.5V11.5L61 11.5V10.5ZM61 15.5L56 15.5L56 16.5L61 16.5L61 15.5ZM61 20.5L56 20.5V21.5L61 21.5V20.5ZM61 25.5L56 25.5V26.5L61 26.5V25.5ZM1 46.5L6 46.5L6 45.5L0.999998 45.5L1 46.5ZM1 51.5L6.00002 51.5L6.00002 50.5L0.999998 50.5L1 51.5ZM1.5 11C1.5 5.7533 5.7533 1.5 11 1.5V0.5C5.20101 0.5 0.500001 5.20101 0.500001 11H1.5ZM6.00002 40.5C3.51474 40.5 1.50002 38.4853 1.50002 36H0.500019C0.500019 39.0376 2.96245 41.5 6.00002 41.5V40.5ZM61 41.5C63.4853 41.5 65.5 43.5147 65.5 46H66.5C66.5 42.9624 64.0376 40.5 61 40.5V41.5ZM61 16.5C63.4853 16.5 65.5 18.5147 65.5 21H66.5C66.5 17.9624 64.0376 15.5 61 15.5V16.5ZM1.50002 36C1.50002 33.5147 3.51472 31.5 6 31.5V30.5C2.96243 30.5 0.500019 32.9624 0.500019 36H1.50002ZM65.5 46C65.5 48.4853 63.4853 50.5 61 50.5V51.5C64.0376 51.5 66.5 49.0376 66.5 46H65.5Z" fill="#989898"/></svg>
