<?xml version="1.0"?>
<svg xmlns="http://www.w3.org/2000/svg" width="123" height="35" viewBox="0 0 123 35" fill="none"><style>#hover{fill:transparent;transition:fill .3s ease-out}#hover:target{fill:#f5f3f1}</style><path d="M1.00005 34V14.9C1.00005 14.9 0.800047 12.8 5.00005 11.8C9.20005 10.8 11 10.2 11 10.2V3.5C11 3.5 10.9 1 13.6 1C16.3 1 38.5 1 38.5 1C38.5 1 41 0.900001 41 4C41 7.1 41 34 41 34H1.00005ZM77 34C77 34 77 6.1 77 3.6C77 1.1 74.1 1 74.1 1C74.1 1 51.1 1 48.7 1C46.2 1 46 3.4 46 3.4V33.8L77 34ZM122 34C122 34 122 17.2 122 15.1C122 13 119 12 119 12L112 10C112 10 112 5.5 112 3.4C112 1.3 109.7 1 109.7 1C109.7 1 87.6 1 84.9 1C82.2001 1 82 3.4 82 3.4V34H122Z" fill="none" id="hover"/><path d="M77 21.5V3.4C77 2.1 75.9 1 74.6 1H48.4C47.1 1 46 2.1 46 3.4V21.6M77 24.1V34H46V24.1M77 24.1C77 25.1 76.2 26 75.3 26H47.6C46.7 26 46 25.1 46 24.1M77 24.1V22.95V21.8C77 19.2 75.1 17 72.8 17H50.1C47.8 17 46 19.1 46 21.8V24.1M112 17V3.4C112 2.1 110.9 1 109.7 1H84.3C83.1 1 82 2.1 82 3.4V22M112 10L119.366 12.1063M115 34H122V15.4C122 13.5 120.4 12 118.5 12C116.6 12 115 13.5 115 15.4V34ZM115 34H82V24.1M82 24.1V21.8C82 19.1 84 17 86.4 17H110.5C112.9 17 114.9 19.2 114.9 21.8V24.1C114.9 25.1 114.2 26 113.2 26H83.7C82.8 26 82 25.1 82 24.1ZM11 17.4V3.3C11 2 12.1 1 13.3 1H38.6C39.9 1 41 2 41 3.3V21.6M8 34H1V15.4C1 13.5 2.6 12 4.5 12M8 34V15.4C8 13.5 6.4 12 4.5 12M8 34H41V24.1M4.5 12L11.3 10M41 24.1V21.8C41 19.1 39 17 36.6 17H12.4C10 17 8 19.2 8 21.8M41 24.1C41 25.1 40.2 26 39.3 26H9.7C8.7 26 8 25.1 8 24.1" stroke="#989898" stroke-miterlimit="10"/></svg>
