<?xml version="1.0"?>
<svg xmlns="http://www.w3.org/2000/svg" width="83" height="39" viewBox="0 0 83 39" fill="none"><style>#hover{fill:transparent;transition:fill .3s ease-out}#hover:target{fill:#f5f3f1}</style><path d="M46.7 0.99998C58.4 2.09998 64.3 2.29998 74.4 1.49998C75.8 1.39998 77.2 1.29998 78.7 1.09998C78.9 1.09998 79.1 1.09998 79.3 0.99998C80.7 0.89998 82 2.09998 82 3.49998V3.59998C80.9 16.3 80.8 22.7 82 35.4C82 35.6 82 35.8 82 35.9C81.8 37.1 80.7 38 79.4 38C79.4 38 79.4 38 79.3 38C66.6 37.1 59.3 36.9 46.6 38C46.5 38 46.5 38 46.4 38C46 38 45.6 37.9 45.3 37.7C44.5 37.3 43.9 36.4 44 35.5V35.4C44.9 23.1 45.1 15.9 44 3.59998C44 3.49998 44 3.49998 44 3.39998C44 2.09998 45.2 0.89998 46.7 0.99998C46.6 0.99998 46.6 0.99998 46.7 0.99998ZM19 37.5C28.9 37.5 37 29.4 37 19.5C37 9.59998 28.9 1.49998 19 1.49998C9.1 1.49998 1 9.59998 1 19.5C1 29.4 9.1 37.5 19 37.5Z" fill="none" id="hover"/><path d="M46.7 0.99998C58.4 2.09998 64.3 2.29998 74.4 1.49998C75.8 1.39998 77.2 1.29998 78.7 1.09998C78.9 1.09998 79.1 1.09998 79.3 0.99998C80.7 0.89998 82 2.09998 82 3.49998V3.59998C80.9 16.3 80.8 22.7 82 35.4C82 35.6 82 35.8 82 35.9C81.8 37.1 80.7 38 79.4 38C79.4 38 79.4 38 79.3 38C66.6 37.1 59.3 36.9 46.6 38C46.5 38 46.5 38 46.4 38C46 38 45.6 37.9 45.3 37.7C44.5 37.3 43.9 36.4 44 35.5V35.4C44.9 23.1 45.1 15.9 44 3.59998C44 3.49998 44 3.49998 44 3.39998C44 2.09998 45.2 0.89998 46.7 0.99998ZM46.7 0.99998C46.6 0.99998 46.6 0.99998 46.7 0.99998ZM13.8 16C14.2 16 14.6 15.7 14.6 15.2C14.6 14.7 14.3 14.4 13.8 14.4C13.3 14.4 13 14.8 13 15.3C13 15.8 13.3 16 13.8 16ZM24.2 16C24.6 16 25 15.7 25 15.2C25 14.7 24.7 14.4 24.2 14.4C23.8 14.4 23.4 14.7 23.4 15.2C23.4 15.7 23.8 16 24.2 16ZM13.8 25.2C14.2 25.2 14.6 24.9 14.6 24.4C14.6 24 14.3 23.6 13.8 23.6C13.3 23.6 13 24 13 24.4C13 24.8 13.3 25.2 13.8 25.2ZM24.2 25.2C24.6 25.2 25 24.9 25 24.4C25 24 24.7 23.6 24.2 23.6C23.8 23.6 23.4 23.9 23.4 24.4C23.5 24.8 23.8 25.2 24.2 25.2ZM55.8 13.5C56.2 13.5 56.6 13.2 56.6 12.7C56.6 12.2 56.2 12 55.8 12C55.4 12 55 12.3 55 12.8C55 13.3 55.3 13.5 55.8 13.5ZM70.2 13.5C70.6 13.5 71 13.2 71 12.7C71 12.2 70.7 12 70.2 12C69.7 12 69.4 12.3 69.4 12.8C69.4 13.3 69.8 13.5 70.2 13.5ZM55.8 26.5C56.2 26.5 56.6 26.2 56.6 25.7C56.6 25.3 56.3 24.9 55.8 24.9C55.4 24.9 55 25.2 55 25.7C55 26.2 55.3 26.5 55.8 26.5ZM70.2 26.5C70.6 26.5 71 26.2 71 25.7C71 25.3 70.7 24.9 70.2 24.9C69.7 24.9 69.4 25.2 69.4 25.7C69.5 26.2 69.8 26.5 70.2 26.5ZM19 37.5C28.9 37.5 37 29.4 37 19.5C37 9.59998 28.9 1.49998 19 1.49998C9.1 1.49998 1 9.59998 1 19.5C1 29.4 9.1 37.5 19 37.5Z" stroke="#989898" stroke-miterlimit="10"/></svg>
