<?xml version="1.0"?>
<svg xmlns="http://www.w3.org/2000/svg" width="74" height="36" viewBox="0 0 74 36" fill="none"><style>#hover{fill:transparent;transition:fill .3s ease-out}#hover:target{fill:#f5f3f1}</style><path d="M7 29V35H4L4.1 29.1L1 29V5.8C1 5.8 1.5 1 6.1 1C10.7 1 27 1 27 1C27 1 32 1.5 32 5.7C32 9.9 32 29 32 29H29V35H26V29H7ZM44.1 35H46.9V29H66V35H69V29H72V10.4C72 10.4 72.9 8.9 72.9 8.2C72.9 7.5 72.9 5 72.9 3.4C72.9 1.8 70 1 70 1C70 1 46.4 1 43.6 1C40.8 1 40 3 40 3.6C40 4.2 40 6.4 40 7.8C40 9.2 41 10.2 41 10.2V29H44L44.1 35Z" fill="none" id="hover"/><path d="M41 10V29H72V10M8.8 10.5C9.2 10.5 9.6 10.2 9.6 9.7C9.5 9.3 9.2 9 8.8 9C8.3 9 8 9.3 8 9.8C8 10.2 8.3 10.5 8.8 10.5ZM24.2 10.5C24.6 10.5 25 10.2 25 9.7C25 9.3 24.7 9 24.2 9C23.8 9 23.4 9.3 23.4 9.8C23.5 10.2 23.8 10.5 24.2 10.5ZM8.8 22.7C9.2 22.7 9.6 22.4 9.6 21.9C9.6 21.5 9.3 21.1 8.8 21.1C8.4 21.1 8 21.4 8 21.9C8 22.3 8.3 22.7 8.8 22.7ZM24.2 22.7C24.6 22.7 25 22.4 25 21.9C25 21.5 24.7 21.1 24.2 21.1C23.8 21.1 23.4 21.4 23.4 21.9C23.5 22.3 23.8 22.7 24.2 22.7ZM4.1 29L4 35H7V29H4.1ZM26.1 29L26 35H29V29H26.1ZM44.1 29L44 35H47V29H44.1ZM66.1 29L66 35H69V29H66.1ZM6 1H27C29.7 1 32 3.3 32 6V29H1V6C1 3.3 3.2 1 6 1ZM43 1H70C71.7 1 73 2.3 73 4V8C73 9.7 71.7 11 70 11H43C41.3 11 40 9.7 40 8V4C40 2.3 41.3 1 43 1Z" stroke="#989898" stroke-miterlimit="10"/></svg>
