<svg width="34" height="25" viewBox="0 0 28 25" fill="none" xmlns="http://www.w3.org/2000/svg">
<path d="M5.80495 10.0692C5.96767 10.0692 6.1304 9.94759 6.1304 9.74492C6.1304 9.54225 6.00836 9.46118 5.80495 9.46118C5.64222 9.46118 5.47949 9.58278 5.47949 9.78545C5.47949 9.98813 5.64222 10.0692 5.80495 10.0692Z" stroke="#404040" stroke-miterlimit="10"/>
<path d="M5.80495 15.0692C5.96767 15.0692 6.1304 14.9476 6.1304 14.7449C6.1304 14.5422 6.00836 14.4612 5.80495 14.4612C5.64222 14.4612 5.47949 14.5828 5.47949 14.7855C5.47949 14.9881 5.64222 15.0692 5.80495 15.0692Z" stroke="#404040" stroke-miterlimit="10"/>
<path d="M11.7039 10.0692C11.8666 10.0692 12.0293 9.94759 12.0293 9.74492C12.0293 9.54225 11.8666 9.46118 11.7039 9.46118C11.5411 9.46118 11.3784 9.58278 11.3784 9.78545C11.3784 9.98813 11.5411 10.0692 11.7039 10.0692Z" stroke="#404040" stroke-miterlimit="10"/>
<path d="M11.7039 15.0692C11.8666 15.0692 12.0293 14.9476 12.0293 14.7449C12.0293 14.5422 11.8666 14.4612 11.7039 14.4612C11.5411 14.4612 11.3784 14.5828 11.3784 14.7855C11.3784 14.9881 11.5411 15.0692 11.7039 15.0692Z" stroke="#404040" stroke-miterlimit="10"/>
<path d="M2.14111 4.00252C7.06601 4.47813 9.54951 4.5646 13.8009 4.21871C14.3902 4.17547 14.9795 4.13223 15.6109 4.04576C15.6951 4.04576 15.7793 4.04576 15.8635 4.00252C16.4528 3.95929 17 4.47813 17 5.08344V5.12667C16.537 10.6177 16.4949 13.3848 17 18.8759C17 18.9623 17 19.0488 17 19.092C16.9158 19.6109 16.4528 20 15.9056 20C15.9056 20 15.9056 20 15.8635 20C10.5177 19.6109 7.44485 19.5244 2.09901 20C2.05692 20 2.05692 20 2.01483 20C1.84645 20 1.67808 19.9568 1.5518 19.8703C1.21506 19.6973 0.962497 19.3082 1.00459 18.9191V18.8759C1.38343 13.5578 1.46761 10.4448 1.00459 5.12667C1.00459 5.08344 1.00459 5.08344 1.00459 5.0402C1.04668 4.47813 1.5518 3.95929 2.14111 4.00252Z" stroke="#404040" stroke-miterlimit="10"/>
<path d="M16 20H24.637C25.9407 20 27 18.4485 27 16.5576V15.4424C27 13.5515 25.9407 12 24.637 12H16.5" stroke="#404040" stroke-miterlimit="10"/>
<path d="M17 17.5H23C23.6667 17.5 24.5 16.8226 24.5 16C24.5 15.1774 23.6667 14.5 23 14.5L17 14.5" stroke="#404040" stroke-miterlimit="10"/>
</svg>
