<svg width="60" height="60" viewBox="0 0 60 60" fill="none" xmlns="http://www.w3.org/2000/svg">
<path d="M0 30C0 13.4315 13.4315 0 30 0C46.5685 0 60 13.4315 60 30C60 46.5685 46.5685 60 30 60C13.4315 60 0 46.5685 0 30Z" fill="white"/>
<path d="M15.7051 27.18C16.2151 28.07 17.1151 28.61 18.1951 28.61C19.4651 28.61 20.4051 27.85 20.4051 26.7C20.4051 25.83 19.8951 25.31 18.8251 24.82L18.0851 24.48C17.4351 24.15 17.2051 24.06 17.1651 23.54C17.1651 23.02 17.6051 22.74 18.1651 22.74C18.7251 22.74 19.2051 23.02 19.5551 23.54L20.2951 22.97C19.8851 22.26 19.0951 21.79 18.1651 21.79C17.0251 21.79 16.0851 22.5 16.0851 23.58C16.0851 24.46 16.6651 24.97 17.6251 25.41L18.3551 25.75C19.0451 26.07 19.3251 26.27 19.3251 26.74C19.3251 27.3 18.8651 27.66 18.1851 27.66C17.4251 27.66 16.8951 27.25 16.4551 26.61L15.7051 27.18Z" fill="#989898"/>
<path d="M21.761 28.5H22.821V25.48H26.141V28.5H27.201V21.9H26.141V24.53H22.821V21.9H21.761V28.5Z" fill="#989898"/>
<path d="M28.4704 25.2C28.4304 27.09 30.0404 28.64 31.9304 28.61C33.8004 28.64 35.4404 27.09 35.4004 25.2C35.4404 23.31 33.8004 21.76 31.9304 21.79C30.0504 21.76 28.4404 23.31 28.4704 25.2ZM34.3104 25.19C34.3104 26.6 33.2904 27.64 31.9404 27.64C30.5704 27.64 29.5704 26.6 29.5704 25.19C29.5704 23.8 30.5704 22.76 31.9404 22.76C33.2904 22.76 34.3104 23.81 34.3104 25.19Z" fill="#989898"/>
<path d="M44.6378 21.9L42.9878 26.36L41.0878 21.79H40.7178L38.8278 26.36L37.1778 21.9H36.0078L38.5778 28.61H38.9378L40.9078 23.93L42.8778 28.61H43.2278L45.7978 21.9H44.6378Z" fill="#989898"/>
<path d="M22.0917 37.5L20.1117 34.78C20.9017 34.47 21.3817 33.79 21.3817 32.92C21.3817 31.73 20.4717 30.9 19.1417 30.9H16.7317V37.5H17.7917V34.95H19.0017L20.8817 37.5H22.0917ZM17.7917 31.84H19.1217C19.8517 31.84 20.2917 32.28 20.2917 32.93C20.2917 33.57 19.8517 34.01 19.1217 34.01H17.7917V31.84Z" fill="#989898"/>
<path d="M22.4938 34.2C22.4538 36.09 24.0638 37.64 25.9538 37.61C27.8238 37.64 29.4638 36.09 29.4238 34.2C29.4638 32.31 27.8238 30.76 25.9538 30.79C24.0738 30.76 22.4638 32.31 22.4938 34.2ZM28.3338 34.19C28.3338 35.6 27.3138 36.64 25.9638 36.64C24.5938 36.64 23.5938 35.6 23.5938 34.19C23.5938 32.8 24.5938 31.76 25.9638 31.76C27.3138 31.76 28.3338 32.81 28.3338 34.19Z" fill="#989898"/>
<path d="M30.2966 34.2C30.2566 36.09 31.8666 37.64 33.7566 37.61C35.6266 37.64 37.2666 36.09 37.2266 34.2C37.2666 32.31 35.6266 30.76 33.7566 30.79C31.8766 30.76 30.2666 32.31 30.2966 34.2ZM36.1366 34.19C36.1366 35.6 35.1166 36.64 33.7666 36.64C32.3966 36.64 31.3966 35.6 31.3966 34.19C31.3966 32.8 32.3966 31.76 33.7666 31.76C35.1166 31.76 36.1366 32.81 36.1366 34.19Z" fill="#989898"/>
<path d="M44.4093 30.79L41.6393 34.48L38.8693 30.79H38.4993V37.5H39.5593V33.35L41.4593 35.84H41.8193L43.7093 33.36V37.5H44.7693V30.79H44.4093Z" fill="#989898"/>
</svg>
