<svg width="60" height="60" viewBox="0 0 60 60" fill="none" xmlns="http://www.w3.org/2000/svg">
<path d="M0 30C0 13.4315 13.4315 0 30 0C46.5685 0 60 13.4315 60 30C60 46.5685 46.5685 60 30 60C13.4315 60 0 46.5685 0 30Z" fill="white"/>
<path d="M42.587 28.4856C42.5928 28.4451 42.5948 28.4006 42.5955 28.3549C42.6097 27.3908 42.1293 26.4684 41.2476 26.0782C39.4521 25.2835 37.7137 26.5731 37.7137 28.2833C37.7137 28.3537 37.7137 28.4241 37.7225 28.4856H24.1844C24.1904 28.4441 24.1923 28.3986 24.1929 28.3518C24.2059 27.388 23.7297 26.4591 22.8457 26.0747C21.0355 25.2874 19.3023 26.5757 19.3023 28.2833C19.3023 28.3537 19.3023 28.4241 19.3111 28.4856H15.5254C15.2352 28.4856 14.9958 28.2507 15.0001 27.9606C15.0183 26.7086 15.4439 23.5627 19.1263 22.3632C21.9558 21.5309 26.2142 18.9395 27.4057 18.1953C27.6108 18.0672 27.848 18 28.0899 18L41.5949 18C42.0849 18 42.5311 18.2729 42.751 18.7107C43.1268 19.4585 43.7231 20.6239 44.1704 21.5187C44.5487 22.2928 44.7686 23.1285 44.8214 23.9905C44.8899 25.2354 44.9627 26.9692 44.9995 27.8767C45.0131 28.2113 44.7453 28.4856 44.4104 28.4856H42.587V28.4856Z" stroke="#989898" stroke-width="1.00006" stroke-miterlimit="10" stroke-linejoin="round"/>
<path d="M24.1937 28.2833C24.1937 28.3537 24.1937 28.4241 24.1849 28.4856C24.0793 29.7348 23.0237 30.72 21.7482 30.72C20.4639 30.72 19.4171 29.7348 19.3115 28.4856C19.3027 28.4241 19.3027 28.3537 19.3027 28.2833C19.3027 26.9287 20.3935 25.8379 21.7482 25.8379C23.0941 25.8379 24.1937 26.9287 24.1937 28.2833Z" stroke="#989898" stroke-width="1.00006" stroke-miterlimit="10" stroke-linejoin="round"/>
<path d="M42.596 28.2833C42.596 28.3537 42.596 28.4241 42.5872 28.4856C42.4816 29.7348 41.4348 30.72 40.1506 30.72C38.875 30.72 37.8282 29.7348 37.7227 28.4856C37.7139 28.4241 37.7139 28.3537 37.7139 28.2833C37.7139 26.9287 38.8046 25.8379 40.1506 25.8379C41.5052 25.8379 42.596 26.9287 42.596 28.2833Z" stroke="#989898" stroke-width="1.00006" stroke-miterlimit="10" stroke-linejoin="round"/>
<path d="M17.6042 35.2489L15.2471 36.0209L15.5147 36.9782L16.894 36.5356V42.0424H17.9851V35.2489H17.6042Z" fill="#989898"/>
<path d="M26.9497 41.1058V36.9885H23.2029L23.1618 38.3369C23.1206 39.8088 22.9456 40.6529 22.5236 41.1058H21.9575V43.4938H23.0177V42.0424H26.7335V43.4938H27.7834V41.1058H26.9497ZM23.6455 41.1058C23.9646 40.5499 24.1396 39.6647 24.1705 38.4398L24.1808 37.9251H25.8689V41.1058H23.6455Z" fill="#989898"/>
<path d="M33.3694 39.8706C33.4208 39.6338 33.4517 39.4074 33.4517 39.1912C33.4517 37.8737 32.4533 36.8752 31.1151 36.8752C29.6844 36.8444 28.4698 38.0692 28.5007 39.5206C28.5007 41.0131 29.6741 42.1557 31.2181 42.1557C31.9901 42.1557 32.6591 41.888 33.2355 41.3425L32.7209 40.6014C32.268 41.0028 31.7739 41.1984 31.249 41.1984C30.3843 41.1984 29.7358 40.694 29.602 39.8706H33.3694ZM29.6226 39.0265C29.7873 38.2751 30.3637 37.7913 31.074 37.7913C31.7842 37.7913 32.3606 38.2545 32.3709 39.0265H29.6226Z" fill="#989898"/>
<path d="M34.7004 42.0424H35.7915V39.8603H37.9634V42.0424H39.0442V36.9885H37.9634V38.9236H35.7915V36.9885H34.7004V42.0424Z" fill="#989898"/>
<path d="M40.6311 42.0424H42.7824C43.9661 42.0424 44.769 41.3734 44.769 40.3132C44.769 39.7882 44.5837 39.3765 44.2131 39.0677C43.8529 38.7486 43.3691 38.5942 42.7824 38.5942H41.7222V36.9885H40.6311V42.0424ZM41.7222 41.1058V39.5309H42.7309C43.3073 39.5309 43.6676 39.8397 43.6676 40.3235C43.6676 40.8073 43.3279 41.1058 42.7412 41.1058H41.7222Z" fill="#989898"/>
</svg>
