<svg width="60" height="60" viewBox="0 0 60 60" fill="none" xmlns="http://www.w3.org/2000/svg">
<path d="M0 30C0 13.4315 13.4315 0 30 0C46.5685 0 60 13.4315 60 30C60 46.5685 46.5685 60 30 60C13.4315 60 0 46.5685 0 30Z" fill="white"/>
<path d="M30.2963 42.6668C37.0873 42.6668 42.5926 40.3785 42.5926 37.5557C42.5926 34.7329 37.0873 32.4446 30.2963 32.4446C23.5052 32.4446 18 34.7329 18 37.5557C18 40.3785 23.5052 42.6668 30.2963 42.6668Z" stroke="#989898" stroke-miterlimit="10"/>
<path d="M30.2963 35.4056C37.0873 35.4056 42.5926 33.1173 42.5926 30.2945C42.5926 27.4717 37.0873 25.1833 30.2963 25.1833C23.5052 25.1833 18 27.4717 18 30.2945C18 33.1173 23.5052 35.4056 30.2963 35.4056Z" stroke="#989898" stroke-miterlimit="10"/>
<path d="M30.2982 28.2222C37.0893 28.2222 42.5946 25.9339 42.5946 23.1111C42.5946 20.2883 37.0893 18 30.2982 18C23.5072 18 18.002 20.2883 18.002 23.1111C18.002 25.9339 23.5072 28.2222 30.2982 28.2222Z" stroke="#989898" stroke-miterlimit="10"/>
</svg>
