<svg width="687" height="121" viewBox="0 0 687 121" fill="none" xmlns="http://www.w3.org/2000/svg">
  <mask id="path-1-outside-1" maskUnits="userSpaceOnUse" x="0" y="-0.5" width="687" height="122" fill="black">
    <rect fill="white" y="-0.5" width="687" height="122"/>
    <path d="M178.379 23.6429C183.191 23.6429 187.144 25.1857 190.238 27.9286C193.16 30.8429 194.707 34.4429 194.707 38.9C194.707 43.5286 193.16 47.3 190.238 50.0429C187.144 52.9571 183.191 54.3286 178.379 54.3286H150.192V23.6429H178.379Z"/>
    <path d="M509.879 97.3571V23.6429H532.91C543.222 23.6429 551.644 27.2429 558.347 34.1C565.05 40.9571 568.487 49.8714 568.487 60.5C568.487 71.3 565.05 80.2143 558.347 87.0714C551.472 93.9286 543.05 97.3571 532.91 97.3571H509.879Z"/>
  </mask>
  <path d="M2 23.6429H1.5V24.1429H2V23.6429ZM42.2179 23.6429H42.7179V23.1429H42.2179V23.6429ZM42.2179 120.5V121H42.7179V120.5H42.2179ZM69.5454 120.5H69.0454V121H69.5454V120.5ZM69.5454 23.6429V23.1429H69.0454V23.6429H69.5454ZM109.763 23.6429V24.1429H110.263V23.6429H109.763ZM109.763 0.5H110.263V0H109.763V0.5ZM2 0.5V0H1.5V0.5H2ZM122.864 120.5V121H123.364V120.5H122.864ZM150.192 120.5H149.692V121H150.192V120.5ZM150.192 77.4714V76.9714H149.692V77.4714H150.192ZM184.051 81.9286L184.508 81.7268L184.501 81.7102L184.492 81.6942L184.051 81.9286ZM201.066 120.5V121H201.833L201.523 120.298L201.066 120.5ZM229.081 120.5L228.623 120.702L228.755 121H229.081V120.5ZM210.347 77.9857L209.887 78.1831L209.889 78.1873L210.347 77.9857ZM203.128 68.9L202.895 68.4579L202.189 68.8304L202.832 69.3029L203.128 68.9ZM217.05 56.2143L217.474 56.4798L217.479 56.47L217.05 56.2143ZM210.003 10.9571L210.331 10.5794L210.327 10.576L210.003 10.9571ZM122.864 0.5V0H122.364V0.5H122.864ZM242.201 120.5V121H242.701V120.5H242.201ZM334.667 120.5H334.167V121H334.667V120.5ZM334.667 97.3571H335.167V96.8571H334.667V97.3571ZM269.528 97.3571H269.028V97.8571H269.528V97.3571ZM269.528 71.1286V70.6286H269.028V71.1286H269.528ZM325.386 71.1286V71.6286H325.886V71.1286H325.386ZM325.386 48.6714H325.886V48.1714H325.386V48.6714ZM269.528 48.6714H269.028V49.1714H269.528V48.6714ZM269.528 23.6429V23.1429H269.028V23.6429H269.528ZM332.949 23.6429V24.1429H333.449V23.6429H332.949ZM332.949 0.5H333.449V0H332.949V0.5ZM242.201 0.5V0H241.701V0.5H242.201ZM351.131 120.5V121H351.631V120.5H351.131ZM377.771 120.5H377.271V121H377.771V120.5ZM377.771 47.9857L378.143 47.6516L377.271 46.6809V47.9857H377.771ZM442.91 120.5V121H444.031L443.282 120.166L442.91 120.5ZM461.644 120.5H461.144V121H461.644V120.5ZM461.644 0.5H462.144V0H461.644V0.5ZM435.004 0.5V0H434.504V0.5H435.004ZM435.004 73.0143L434.634 73.3504L435.504 74.309V73.0143H435.004ZM369.177 0.5L369.547 0.16393L369.399 0H369.177V0.5ZM351.131 0.5V0H350.631V0.5H351.131ZM482.552 120.5V121H483.052V120.5H482.552ZM577.94 103.871L578.28 104.238L578.283 104.236L577.94 103.871ZM578.112 17.4714L578.46 17.1122L578.457 17.1097L578.112 17.4714ZM482.552 0.5V0H482.052V0.5H482.552ZM607.314 89.8143V89.3143H606.995L606.86 89.6043L607.314 89.8143ZM616.939 115.529L617.218 115.114L617.214 115.111L616.939 115.529ZM673.828 114.843L673.536 114.437L673.53 114.441L673.828 114.843ZM674.172 74.5571L674.427 74.1271L674.416 74.1206L674.172 74.5571ZM650.798 67.3571L650.901 66.868L650.85 66.8571H650.798V67.3571ZM647.36 66.6714L647.481 66.1863L647.46 66.1809L647.438 66.1775L647.36 66.6714ZM636.189 64.1L636.374 63.6356L636.353 63.6274L636.332 63.621L636.189 64.1ZM632.579 62.2143L632.226 62.5683L632.226 62.5683L632.579 62.2143ZM635.157 55.8714L635.354 56.3314L635.366 56.3256L635.157 55.8714ZM656.813 65.6429L656.328 65.5213L656.172 66.1429H656.813V65.6429ZM680.016 65.6429V66.1429H680.337L680.471 65.8502L680.016 65.6429ZM671.078 40.2714L670.792 40.6814L670.792 40.6814L671.078 40.2714ZM617.455 40.9571L617.149 40.5615L617.143 40.5663L617.455 40.9571ZM617.283 81.4143L617.551 80.992L617.539 80.9852L617.283 81.4143ZM639.626 88.2714L639.849 87.824L639.787 87.7928L639.718 87.7799L639.626 88.2714ZM642.376 88.7857L642.481 88.2969L642.429 88.2857H642.376V88.7857ZM656.126 92.0429L656.301 91.5745L656.288 91.5697L656.274 91.5655L656.126 92.0429ZM656.297 99.7571L656.122 99.2888L656.122 99.2888L656.297 99.7571ZM630.517 89.8143L630.951 90.0628L631.379 89.3143H630.517V89.8143ZM627.509 120.5V121L627.656 120.022L627.509 120.5ZM662.539 120.5L662.39 120.023L662.539 121V120.5ZM2 24.1429H42.2179V23.1429H2V24.1429ZM41.7179 23.6429V120.5H42.7179V23.6429H41.7179ZM70.0454 120.5V23.6429H69.0454V120.5H70.0454ZM69.5454 24.1429H109.763V23.1429H69.5454V24.1429ZM110.263 23.6429V0.5H109.263V23.6429H110.263ZM109.763 0H2V1H109.763V0ZM1.5 0.5V23.6429H2.5V0.5H1.5ZM150.692 120.5V77.4714H149.692V120.5H150.692ZM150.192 77.9714H176.144V76.9714H150.192V77.9714ZM176.144 77.9714C177.967 77.9714 179.467 78.3428 180.687 79.0411C181.905 79.7382 182.874 80.778 183.609 82.163L184.492 81.6942C183.68 80.1648 182.587 78.976 181.184 78.1732C179.783 77.3715 178.103 76.9714 176.144 76.9714V77.9714ZM183.593 82.1304L200.608 120.702L201.523 120.298L184.508 81.7268L183.593 82.1304ZM229.538 120.298L210.804 77.7841L209.889 78.1873L228.623 120.702L229.538 120.298ZM210.806 77.7883C209.225 74.108 206.763 70.9508 203.424 68.4971L202.832 69.3029C206.025 71.6492 208.375 74.6634 209.887 78.1831L210.806 77.7883ZM203.362 69.3421C209.275 66.2195 213.985 62.0474 217.473 56.4798L216.626 55.9488C213.24 61.3526 208.669 65.409 202.895 68.4579L203.362 69.3421ZM217.479 56.47C220.793 50.904 222.534 44.6436 222.534 37.5286H221.534C221.534 44.4707 219.838 50.5532 216.62 55.9585L217.479 56.47ZM222.534 37.5286C222.534 26.5843 218.347 17.532 210.331 10.5794L209.675 11.3349C217.472 18.0966 221.534 26.8728 221.534 37.5286H222.534ZM210.327 10.576C202.144 3.62953 191.538 0 178.551 0V1C191.343 1 201.707 4.57048 209.68 11.3383L210.327 10.576ZM178.551 0H122.864V1H178.551V0ZM122.364 0.5V120.5H123.364V0.5H122.364ZM335.167 120.5V97.3571H334.167V120.5H335.167ZM334.667 96.8571H269.528V97.8571H334.667V96.8571ZM270.028 97.3571V71.1286H269.028V97.3571H270.028ZM269.528 71.6286H325.386V70.6286H269.528V71.6286ZM325.886 71.1286V48.6714H324.886V71.1286H325.886ZM325.386 48.1714H269.528V49.1714H325.386V48.1714ZM270.028 48.6714V23.6429H269.028V48.6714H270.028ZM269.528 24.1429H332.949V23.1429H269.528V24.1429ZM333.449 23.6429V0.5H332.449V23.6429H333.449ZM332.949 0H242.201V1H332.949V0ZM241.701 0.5V120.5H242.701V0.5H241.701ZM378.271 120.5V47.9857H377.271V120.5H378.271ZM377.399 48.3198L442.538 120.834L443.282 120.166L378.143 47.6516L377.399 48.3198ZM462.144 120.5V0.5H461.144V120.5H462.144ZM461.644 0H435.004V1H461.644V0ZM434.504 0.5V73.0143H435.504V0.5H434.504ZM435.374 72.6782L369.547 0.16393L368.807 0.83607L434.634 73.3504L435.374 72.6782ZM369.177 0H351.131V1H369.177V0ZM350.631 0.5V120.5H351.631V0.5H350.631ZM532.91 121C551.068 121 566.146 115.476 578.28 104.238L577.601 103.505C565.672 114.552 550.846 120 532.91 120V121ZM578.283 104.236C590.251 92.9906 596.315 78.4546 596.315 60.5H595.315C595.315 78.2025 589.348 92.4666 577.598 103.507L578.283 104.236ZM596.315 60.5C596.315 42.8848 590.249 28.5247 578.46 17.1122L577.764 17.8307C589.35 29.0467 595.315 43.1438 595.315 60.5H596.315ZM578.457 17.1097C566.494 5.696 551.241 0 532.91 0V1C551.016 1 566.012 6.61828 577.767 17.8332L578.457 17.1097ZM532.91 0H482.552V1H532.91V0ZM482.052 0.5V120.5H483.052V0.5H482.052ZM606.86 89.6043C605.798 91.8995 605.267 94.3712 605.267 96.8428H606.267C606.267 94.5145 606.768 92.1862 607.768 90.0243L606.86 89.6043ZM605.267 96.8428C605.267 104.584 608.989 110.901 616.664 115.946L617.214 115.111C609.764 110.214 606.267 104.187 606.267 96.8428H605.267ZM674.12 115.249C681.637 109.844 685.5 102.495 685.5 93.4143H684.5C684.5 102.162 680.801 109.213 673.536 114.437L674.12 115.249ZM685.5 93.4143C685.5 85.0071 681.796 78.5019 674.427 74.1272L673.917 74.9871C680.986 79.1838 684.5 85.3643 684.5 93.4143H685.5ZM674.416 74.1206C670.047 71.6804 662.247 69.2684 650.901 66.868L650.694 67.8463C662.035 70.2459 669.704 72.6339 673.928 74.9937L674.416 74.1206ZM650.798 66.8571C650.425 66.8571 649.953 66.7817 649.38 66.6547C648.809 66.528 648.18 66.3605 647.481 66.1863L647.239 67.1566C647.916 67.3252 648.576 67.5006 649.164 67.631C649.751 67.7612 650.311 67.8571 650.798 67.8571V66.8571ZM647.438 66.1775C644.151 65.6598 641.96 65.3227 640.794 64.9906L640.52 65.9523C641.761 66.3059 644.039 66.6545 647.282 67.1653L647.438 66.1775ZM640.794 64.9906C639.558 64.6384 638.061 64.3087 636.374 63.6356L636.003 64.5644C637.754 65.2627 639.35 65.6188 640.52 65.9523L640.794 64.9906ZM636.332 63.621C634.659 63.1203 633.541 62.4671 632.932 61.8603L632.226 62.5683C632.993 63.3329 634.281 64.0511 636.045 64.579L636.332 63.621ZM632.932 61.8603C632.637 61.5657 632.467 61.288 632.366 60.9844C632.262 60.672 632.22 60.3047 632.22 59.8143H631.22C631.22 60.3525 631.264 60.8423 631.418 61.3013C631.574 61.7691 631.834 62.1772 632.226 62.5683L632.932 61.8603ZM632.22 59.8143C632.22 58.5558 633.039 57.3205 635.354 56.3312L634.961 55.4117C632.463 56.4795 631.22 57.9871 631.22 59.8143H632.22ZM635.366 56.3256C637.508 55.3396 640.521 54.8286 644.266 54.8286V53.8286C640.45 53.8286 637.275 54.3461 634.948 55.4172L635.366 56.3256ZM644.266 54.8286C648.616 54.8286 651.82 55.4694 653.919 56.6895C655.979 57.886 657.001 59.6501 657.001 62.0429H658.001C658.001 59.2927 656.788 57.1997 654.422 55.8248C652.096 54.4734 648.682 53.8286 644.266 53.8286V54.8286ZM657.001 62.0429C657.001 62.9923 656.682 64.111 656.328 65.5213L657.298 65.7644C657.632 64.4319 658.001 63.1505 658.001 62.0429H657.001ZM656.813 66.1429H680.016V65.1429H656.813V66.1429ZM680.471 65.8502C681.361 63.8964 681.891 61.5968 681.891 58.9571H680.891C680.891 61.4604 680.389 63.6178 679.561 65.4355L680.471 65.8502ZM681.891 58.9571C681.891 51.2349 678.36 44.7454 671.365 39.8615L670.792 40.6814C677.547 45.3974 680.891 51.5936 680.891 58.9571H681.891ZM671.365 39.8615C664.389 34.9911 655.346 32.4 644.61 32.4V33.4C655.187 33.4 664.018 35.9518 670.792 40.6814L671.365 39.8615ZM644.61 32.4C633.185 32.4 624.131 35.164 617.149 40.5616L617.76 41.3527C624.528 36.1217 633.349 33.4 644.61 33.4V32.4ZM617.143 40.5663C610.146 46.1494 606.642 53.4949 606.642 62.7286H607.642C607.642 53.7908 611.014 46.7363 617.767 41.348L617.143 40.5663ZM606.642 62.7286C606.642 66.9939 607.472 70.7218 609.194 73.9159C610.918 77.1119 613.521 79.7459 617.026 81.8433L617.539 80.9852C614.169 78.9684 611.702 76.4595 610.075 73.4412C608.446 70.421 607.642 66.8633 607.642 62.7286H606.642ZM617.015 81.8364C620.884 84.2925 628.532 86.7052 639.534 88.7629L639.718 87.7799C628.721 85.7233 621.243 83.3361 617.551 80.9921L617.015 81.8364ZM639.403 88.7189C639.775 88.9044 640.372 89.1143 640.829 89.1143V88.1143C640.598 88.1143 640.165 87.9813 639.849 87.824L639.403 88.7189ZM640.829 89.1143C640.947 89.1143 641.1 89.1447 641.392 89.1932C641.658 89.2376 641.991 89.2857 642.376 89.2857V88.2857C642.073 88.2857 641.805 88.2481 641.556 88.2068C641.332 88.1696 641.055 88.1143 640.829 88.1143V89.1143ZM642.271 89.2745C648.639 90.648 653.254 91.6714 655.977 92.5202L656.274 91.5655C653.498 90.7001 648.831 89.6663 642.481 88.2969L642.271 89.2745ZM655.95 92.5112C657.303 93.0171 658.315 93.5498 658.981 94.1165C659.639 94.6762 659.922 95.234 659.922 95.8143H660.922C660.922 94.8517 660.432 94.038 659.629 93.3549C658.834 92.6787 657.698 92.0971 656.301 91.5745L655.95 92.5112ZM659.922 95.8143C659.922 96.5148 659.65 97.1162 659.05 97.6776C658.433 98.2547 657.473 98.7838 656.122 99.2888L656.473 100.225C657.872 99.7019 658.975 99.1167 659.733 98.4081C660.507 97.6838 660.922 96.828 660.922 95.8143H659.922ZM656.122 99.2888C653.45 100.288 649.906 100.8 645.47 100.8V101.8C649.97 101.8 653.645 101.283 656.473 100.225L656.122 99.2888ZM645.47 100.8C640.165 100.8 636.306 100.157 633.791 98.9026C632.541 98.2792 631.639 97.5128 631.047 96.6137C630.458 95.7172 630.157 94.6583 630.157 93.4143H629.157C629.157 94.8274 629.501 96.0828 630.212 97.1631C630.92 98.2407 631.973 99.1137 633.344 99.7974C636.071 101.157 640.118 101.8 645.47 101.8V100.8ZM630.157 93.4143C630.157 92.265 630.322 91.1608 630.951 90.0628L630.083 89.5657C629.337 90.8678 629.157 92.1636 629.157 93.4143H630.157ZM630.517 89.3143H607.314V90.3143H630.517V89.3143ZM42.2179 120H0V121H42.2179V120ZM69.5454 121H122.864V120H69.5454V121ZM150.192 121H201.066V120H150.192V121ZM229.081 121H242.201V120H229.081V121ZM334.667 121H351.131V120H334.667V121ZM377.771 121H442.91V120H377.771V121ZM482.552 120H461.644V121H482.552V120ZM616.66 115.943C619.856 118.094 623.429 119.767 627.361 120.978L627.656 120.022C623.809 118.837 620.326 117.205 617.218 115.114L616.66 115.943ZM532.91 121H627.509V120H532.91V121ZM662.689 120.977C666.94 119.643 670.76 117.743 674.126 115.244L673.53 114.441C670.261 116.868 666.544 118.719 662.39 120.023L662.689 120.977ZM662.539 121H687V120H662.539V121ZM190.238 27.9286L190.944 27.2206L190.923 27.1998L190.901 27.1803L190.238 27.9286ZM190.238 50.0429L189.553 49.3138L189.552 49.315L190.238 50.0429ZM150.192 54.3286H149.192V55.3286H150.192V54.3286ZM150.192 23.6429V22.6429H149.192V23.6429H150.192ZM509.879 97.3571H508.879V98.3571H509.879V97.3571ZM509.879 23.6429V22.6429H508.879V23.6429H509.879ZM558.347 34.1L559.062 33.401L559.062 33.401L558.347 34.1ZM558.347 87.0714L559.053 87.7795L559.062 87.7704L558.347 87.0714ZM178.379 24.6429C182.96 24.6429 186.674 26.105 189.574 28.6768L190.901 27.1803C187.615 24.2664 183.422 22.6429 178.379 22.6429V24.6429ZM189.532 28.6366C192.264 31.3614 193.707 34.7059 193.707 38.9H195.707C195.707 34.1798 194.056 30.3243 190.944 27.2206L189.532 28.6366ZM193.707 38.9C193.707 43.2899 192.248 46.7842 189.553 49.3138L190.922 50.7719C194.071 47.8158 195.707 43.7672 195.707 38.9H193.707ZM189.552 49.315C186.678 52.0223 182.987 53.3286 178.379 53.3286V55.3286C183.395 55.3286 187.61 53.892 190.924 50.7708L189.552 49.315ZM178.379 53.3286H150.192V55.3286H178.379V53.3286ZM151.192 54.3286V23.6429H149.192V54.3286H151.192ZM150.192 24.6429H178.379V22.6429H150.192V24.6429ZM510.879 97.3571V23.6429H508.879V97.3571H510.879ZM509.879 24.6429H532.91V22.6429H509.879V24.6429ZM532.91 24.6429C542.96 24.6429 551.122 28.1394 557.632 34.799L559.062 33.401C552.166 26.3464 543.484 22.6429 532.91 22.6429V24.6429ZM557.632 34.799C564.133 41.4493 567.487 50.1033 567.487 60.5H569.487C569.487 49.6396 565.967 40.465 559.062 33.401L557.632 34.799ZM567.487 60.5C567.487 71.0706 564.131 79.7237 557.632 86.3724L559.062 87.7704C565.969 80.7048 569.487 71.5294 569.487 60.5H567.487ZM557.641 86.3634C550.961 93.0263 542.796 96.3571 532.91 96.3571V98.3571C543.305 98.3571 551.984 94.8308 559.053 87.7794L557.641 86.3634ZM532.91 96.3571H509.879V98.3571H532.91V96.3571Z" fill="#989898" mask="url(#path-1-outside-1)"/>
</svg>
