<svg width="17" height="21" viewBox="0 0 17 21" fill="none" xmlns="http://www.w3.org/2000/svg">
<path d="M1.11805 10.6291C0.964477 11.2271 0.882812 11.854 0.882812 12.5C0.882812 16.6421 4.24068 20 8.38281 20C12.5249 20 15.8828 16.6421 15.8828 12.5C15.8828 11.8074 15.7889 11.1367 15.6132 10.5" stroke="#989898" stroke-miterlimit="10"/>
<circle cx="8.38281" cy="8.5" r="7.5" stroke="#989898" stroke-miterlimit="10"/>
<path d="M11.3821 10.1167C11.4169 8.54086 10.1289 7.21012 8.62035 7.23346C7.75005 7.23346 6.99578 7.63035 6.53162 8.29572C6.56643 6.62646 6.85653 5.84436 9.13093 5.50584C9.93161 5.41245 10.5118 5.29572 10.8831 5.14397V4C10.5698 4.1284 9.96642 4.25681 9.07291 4.38521C7.0654 4.67704 6.05585 5.4358 5.67291 6.59144C5.47565 7.16342 5.38281 7.88716 5.38281 8.76265V9.68482C5.38281 11.6576 6.60124 13 8.38827 13C10.0709 13 11.3821 11.7393 11.3821 10.1167ZM10.1289 10.1167C10.1289 11.0973 9.35141 11.8794 8.37667 11.8794C7.41353 11.8794 6.63605 11.0973 6.63605 10.1167C6.63605 9.14786 7.41353 8.36576 8.37667 8.36576C9.35141 8.36576 10.1289 9.14786 10.1289 10.1167Z" fill="#989898"/>
</svg>
