<svg width="5074" height="196.99999999999997" xmlns="http://www.w3.org/2000/svg" fill="none">
 <g id="Layer_1">
  <title>Layer 1</title>
  <path d="m127,196l28,0m340,0l27,0m-256,0l42,0" stroke="white" stroke-width="2" id="svg_1"/>
  <path d="m-0.28935,196.45574l2377.04035,0.04426l-0.1,-42.213l-99.4901,0l0,-17.978l75.3051,-133.04304l31.331,0l-71.732,126.12804l64.586,0l0,-50.0641l27.759,0l0,50.0641l24.46,0l0,24.893l-24.46,0l0,42.213l111.78,0c-14.069,-3.989 -26.261,-11.937 -36.4,-24.787c-14.841,-18.809 -22.262,-42.596 -22.262,-71.638c0,-28.7664 7.421,-52.5537 22.262,-71.3622c14.841,-18.80854 34.08,-28.2128 57.166,-28.2128c23.086,0 42.05,9.40426 56.891,28.2128c14.841,18.8085 22.537,42.5958 22.537,71.3622c0,29.042 -7.696,52.829 -22.537,71.638c-10.174,12.894 -22.285,20.814 -36.334,24.787c62.369,0 124.738,0 187.108,0l0,-42.213l-99.491,0l0,-17.978l75.305,-133.04304l31.331,0l-71.732,126.12804l64.587,0l0,-50.0641l27.758,0l0,50.0641l24.46,0l0,24.893l-24.46,0l0,42.213l2302.47867,-0.03334m-2588.19667,-96.39166c0,-21.0218 4.672,-38.1707 14.017,-52.0005c9.344,-13.5532 21.437,-20.4681 36.278,-20.4681c14.566,0 26.659,6.9149 36.004,20.4681c9.344,13.8298 14.291,30.9787 14.291,52.0005c0,21.021 -4.947,38.446 -14.291,52c-9.345,13.829 -21.438,20.468 -36.004,20.468c-14.841,0 -26.934,-6.639 -36.278,-20.468c-9.345,-13.554 -14.017,-30.979 -14.017,-52z" stroke="#989898" id="svg_2"/>
 </g>

</svg>