<svg width="42" height="35" viewBox="0 0 42 35" fill="none" xmlns="http://www.w3.org/2000/svg">
<g clip-path="url(#clip0_6767_284520)">
<path fill-rule="evenodd" clip-rule="evenodd" d="M15.166 0.350001C6.18269 6.06667 1.16602 12.8333 0.116022 20.5333C-1.40064 32.4333 9.33269 38.2667 14.6994 33.0167C20.066 27.7667 16.916 21.1167 12.9494 19.25C8.98269 17.3833 6.64936 18.0833 6.99936 15.6333C7.46602 13.1833 12.9494 6.41667 17.8494 3.26667C18.1994 3.03333 18.316 2.45 17.966 2.1C17.7327 1.86667 17.3827 1.28333 16.7994 0.466668C16.3327 -0.116666 15.866 -0.116666 15.166 0.350001Z" fill="#404040"/>
<path fill-rule="evenodd" clip-rule="evenodd" d="M38.851 0.350018C29.8677 6.18335 24.851 12.8334 23.801 20.5333C22.2843 32.4333 32.901 38.3834 38.3843 33.1334C43.751 27.8834 40.601 21.2334 36.6343 19.3667C32.6677 17.5 30.3343 18.2 30.6843 15.75C31.151 13.3 36.6343 6.53335 41.5343 3.38335C41.8843 3.15002 42.001 2.56668 41.651 2.21668C41.4177 1.98335 41.0677 1.40002 40.4843 0.583352C40.1343 -0.116648 39.551 -0.116648 38.851 0.350018Z" fill="#404040"/>
</g>
<defs>
<clipPath id="clip0_6767_284520">
<rect width="42" height="35" fill="white"/>
</clipPath>
</defs>
</svg>
